<svg t="1767678127611" class="icon" viewBox="0 0 1024 1024" version="1.1" xmlns="http://www.w3.org/2000/svg" p-id="10136" width="128" height="128"><path d="M511.095467 0C241.7664 0 20.906667 207.36 0 470.920533l274.944 113.390934a144.964267 144.964267 0 0 1 81.7152-25.156267c2.696533 0 5.341867 0.170667 8.0384 0.256l122.299733-176.725333v-2.525867c0.085333-106.564267 86.613333-192.9216 193.365334-193.024 106.615467 0 193.3824 86.664533 193.3824 193.143467 0 106.496-86.766933 193.0752-193.365334 193.0752h-4.488533l-174.250667 124.2112c0 2.218667 0.170667 4.471467 0.170667 6.775466a144.5888 144.5888 0 0 1-42.359467 102.417067 145.117867 145.117867 0 0 1-102.536533 42.478933 145.783467 145.783467 0 0 1-142.370133-116.343466L17.698133 651.52C78.6432 866.440533 276.309333 1024 511.095467 1024 794.368 1024 1024 794.760533 1024 512 1024 229.239467 794.333867 0 511.095467 0zM321.365333 776.96L258.389333 750.933333a108.868267 108.868267 0 0 0 56.1664 53.333334 109.192533 109.192533 0 0 0 118.698667-23.432534 108.6976 108.6976 0 0 0 23.944533-118.391466 108.936533 108.936533 0 0 0-139.127466-60.279467l65.092266 26.88a80.0768 80.0768 0 0 1 43.2128 104.789333 80.3328 80.3328 0 0 1-104.977066 43.127467h-0.034134z m487.936-396.936533c-0.1024-70.997333-57.7536-128.529067-128.887466-128.631467-71.168 0-128.8704 57.6-128.8704 128.631467 0 71.048533 57.685333 128.648533 128.8704 128.648533 71.168 0 128.8704-57.6 128.8704-128.648533z m-225.399466-0.2048a96.631467 96.631467 0 0 1 48.418133-83.712 96.989867 96.989867 0 0 1 96.836267 0 96.631467 96.631467 0 0 1 48.418133 83.712 96.8192 96.8192 0 0 1-96.853333 96.648533 96.8704 96.8704 0 0 1-68.471467-28.296533 96.512 96.512 0 0 1-28.347733-68.352z" fill="#ffffff" p-id="10137" data-spm-anchor-id="a313x.search_index.0.i13.5be43a81E0Ozfo" class="selected"></path></svg>